<mxfile host="65bd71144e">
    <diagram id="XRl6ZiHxHT-NZGrIIK-5" name="Page-1">
        <mxGraphModel dx="702" dy="591" grid="1" gridSize="10" guides="1" tooltips="1" connect="1" arrows="1" fold="1" page="1" pageScale="1" pageWidth="850" pageHeight="1100" math="0" shadow="0">
            <root>
                <mxCell id="0"/>
                <mxCell id="1" parent="0"/>
                <mxCell id="75" value="GENERIC OPERATION FLOW" style="swimlane;childLayout=stackLayout;resizeParent=1;resizeParentMax=0;startSize=20;html=1;fillColor=default;" parent="1" vertex="1">
                    <mxGeometry x="160" y="290" width="470" height="480" as="geometry"/>
                </mxCell>
                <mxCell id="76" value="FRONTEND" style="swimlane;startSize=20;html=1;fillColor=#0000FF;fillStyle=auto;" parent="75" vertex="1">
                    <mxGeometry y="20" width="310.00000000000045" height="460" as="geometry"/>
                </mxCell>
                <mxCell id="98" value="" style="edgeStyle=none;html=1;" parent="76" source="82" target="83" edge="1">
                    <mxGeometry relative="1" as="geometry"/>
                </mxCell>
                <mxCell id="82" value="START" style="ellipse;whiteSpace=wrap;html=1;fillStyle=auto;strokeColor=#FFFFFF;fillColor=default;" parent="76" vertex="1">
                    <mxGeometry x="30" y="50" width="80" height="40" as="geometry"/>
                </mxCell>
                <mxCell id="83" value="FRONTEND REQUEST" style="rounded=0;whiteSpace=wrap;html=1;fillStyle=auto;strokeColor=#FFFFFF;fillColor=default;" parent="76" vertex="1">
                    <mxGeometry x="10" y="130" width="120" height="40" as="geometry"/>
                </mxCell>
                <mxCell id="89" value="UPDATE USER INTERFACE" style="rounded=0;whiteSpace=wrap;html=1;fillStyle=auto;strokeColor=#FFFFFF;fillColor=default;" parent="76" vertex="1">
                    <mxGeometry x="10" y="330" width="120" height="40" as="geometry"/>
                </mxCell>
                <mxCell id="77" value="BACKEND" style="swimlane;startSize=20;html=1;fillColor=#a20025;fontColor=#ffffff;strokeColor=#FFFFFF;" parent="76" vertex="1">
                    <mxGeometry x="140" width="170.00000000000045" height="460" as="geometry">
                        <mxRectangle x="140" y="20" width="40" height="460" as="alternateBounds"/>
                    </mxGeometry>
                </mxCell>
                <mxCell id="88" value="" style="edgeStyle=none;html=1;" parent="77" source="85" target="87" edge="1">
                    <mxGeometry relative="1" as="geometry"/>
                </mxCell>
                <mxCell id="85" value="HANDLE API REQUEST" style="whiteSpace=wrap;html=1;strokeColor=#FFFFFF;rounded=0;fillStyle=auto;" parent="77" vertex="1">
                    <mxGeometry x="40" y="130" width="120" height="40" as="geometry"/>
                </mxCell>
                <mxCell id="87" value="ACCESS&lt;br&gt;DATABASE" style="rounded=0;whiteSpace=wrap;html=1;strokeColor=#FFFFFF;fillStyle=auto;" parent="77" vertex="1">
                    <mxGeometry x="40" y="210" width="120" height="40" as="geometry"/>
                </mxCell>
                <mxCell id="90" value="SEND RESPONSE TO FRONTEND" style="whiteSpace=wrap;html=1;strokeColor=#FFFFFF;rounded=0;fillStyle=auto;" parent="77" vertex="1">
                    <mxGeometry x="25" y="330" width="120" height="40" as="geometry"/>
                </mxCell>
                <mxCell id="86" value="" style="edgeStyle=none;html=1;" parent="76" source="83" target="85" edge="1">
                    <mxGeometry relative="1" as="geometry"/>
                </mxCell>
                <mxCell id="97" value="" style="edgeStyle=none;html=1;" parent="76" source="90" target="89" edge="1">
                    <mxGeometry relative="1" as="geometry"/>
                </mxCell>
                <mxCell id="78" value="DATABASE" style="swimlane;startSize=20;html=1;fillColor=#60a917;fontColor=#ffffff;strokeColor=#FFFFFF;" parent="75" vertex="1">
                    <mxGeometry x="310.00000000000045" y="20" width="159.99999999999955" height="460" as="geometry"/>
                </mxCell>
                <mxCell id="95" value="" style="edgeStyle=none;html=1;" parent="78" source="92" target="94" edge="1">
                    <mxGeometry relative="1" as="geometry"/>
                </mxCell>
                <mxCell id="92" value="CRUD&lt;br&gt;OPERATIONS" style="whiteSpace=wrap;html=1;strokeColor=#FFFFFF;rounded=0;fillStyle=auto;" parent="78" vertex="1">
                    <mxGeometry x="30" y="210" width="120" height="40" as="geometry"/>
                </mxCell>
                <mxCell id="94" value="SEND INFO TO BACKEND" style="whiteSpace=wrap;html=1;strokeColor=#FFFFFF;rounded=0;fillStyle=auto;" parent="78" vertex="1">
                    <mxGeometry x="30" y="330" width="120" height="40" as="geometry"/>
                </mxCell>
                <mxCell id="93" value="" style="edgeStyle=none;html=1;" parent="75" source="87" target="92" edge="1">
                    <mxGeometry relative="1" as="geometry"/>
                </mxCell>
                <mxCell id="96" value="" style="edgeStyle=none;html=1;dashed=1;" parent="75" source="94" target="90" edge="1">
                    <mxGeometry relative="1" as="geometry"/>
                </mxCell>
            </root>
        </mxGraphModel>
    </diagram>
</mxfile>